<svg xmlns="http://www.w3.org/2000/svg" xmlns:xlink="http://www.w3.org/1999/xlink" width="500" zoomAndPan="magnify" viewBox="0 0 375 124.499996" height="166" preserveAspectRatio="xMidYMid meet" version="1.0"><defs><g/><clipPath id="fcd2ab1ac0"><path d="M 0.75 11 L 100.542969 11 L 100.542969 113.003906 L 0.75 113.003906 Z M 0.75 11 " clip-rule="nonzero"/></clipPath><clipPath id="bb4a056774"><path d="M 17.960938 11 L 81.121094 11 C 91.847656 11 100.542969 19.695312 100.542969 30.421875 L 100.542969 93.582031 C 100.542969 104.308594 91.847656 113.003906 81.121094 113.003906 L 17.960938 113.003906 C 7.234375 113.003906 -1.460938 104.308594 -1.460938 93.582031 L -1.460938 30.421875 C -1.460938 19.695312 7.234375 11 17.960938 11 Z M 17.960938 11 " clip-rule="nonzero"/></clipPath></defs><g clip-path="url(#fcd2ab1ac0)"><g clip-path="url(#bb4a056774)"><path fill="#1649ff" d="M -1.460938 11 L 100.542969 11 L 100.542969 113.003906 L -1.460938 113.003906 Z M -1.460938 11 " fill-opacity="1" fill-rule="nonzero"/></g></g><g fill="#292929" fill-opacity="1"><g transform="translate(117.356085, 87.497663)"><g><path d="M 35.515625 -34.578125 C 35.515625 -34.578125 35.101562 -34.816406 34.28125 -35.296875 C 33.457031 -35.773438 32.367188 -36.316406 31.015625 -36.921875 C 29.671875 -37.523438 28.203125 -38.066406 26.609375 -38.546875 C 25.023438 -39.035156 23.460938 -39.28125 21.921875 -39.28125 C 20.710938 -39.28125 19.722656 -39.082031 18.953125 -38.6875 C 18.179688 -38.300781 17.796875 -37.65625 17.796875 -36.75 C 17.796875 -35.875 18.179688 -35.171875 18.953125 -34.640625 C 19.722656 -34.109375 20.816406 -33.625 22.234375 -33.1875 C 23.660156 -32.757812 25.363281 -32.234375 27.34375 -31.609375 C 30.519531 -30.640625 33.265625 -29.53125 35.578125 -28.28125 C 37.898438 -27.03125 39.6875 -25.425781 40.9375 -23.46875 C 42.1875 -21.519531 42.8125 -18.925781 42.8125 -15.6875 C 42.8125 -12.601562 42.253906 -10.015625 41.140625 -7.921875 C 40.035156 -5.828125 38.539062 -4.148438 36.65625 -2.890625 C 34.78125 -1.640625 32.6875 -0.734375 30.375 -0.171875 C 28.0625 0.378906 25.703125 0.65625 23.296875 0.65625 C 20.828125 0.65625 18.253906 0.398438 15.578125 -0.109375 C 12.910156 -0.617188 10.320312 -1.316406 7.8125 -2.203125 C 5.300781 -3.097656 3.007812 -4.148438 0.9375 -5.359375 L 7.015625 -17.71875 C 7.015625 -17.71875 7.492188 -17.425781 8.453125 -16.84375 C 9.421875 -16.269531 10.703125 -15.617188 12.296875 -14.890625 C 13.890625 -14.171875 15.660156 -13.519531 17.609375 -12.9375 C 19.566406 -12.363281 21.53125 -12.078125 23.5 -12.078125 C 25.050781 -12.078125 26.125 -12.28125 26.71875 -12.6875 C 27.320312 -13.101562 27.625 -13.648438 27.625 -14.328125 C 27.625 -15.335938 27.09375 -16.117188 26.03125 -16.671875 C 24.976562 -17.222656 23.59375 -17.75 21.875 -18.25 C 20.164062 -18.757812 18.273438 -19.351562 16.203125 -20.03125 C 13.210938 -21.039062 10.753906 -22.1875 8.828125 -23.46875 C 6.898438 -24.75 5.476562 -26.269531 4.5625 -28.03125 C 3.644531 -29.789062 3.1875 -31.921875 3.1875 -34.421875 C 3.1875 -38.234375 4.078125 -41.414062 5.859375 -43.96875 C 7.640625 -46.53125 9.988281 -48.472656 12.90625 -49.796875 C 15.820312 -51.117188 18.96875 -51.78125 22.34375 -51.78125 C 24.851562 -51.78125 27.273438 -51.476562 29.609375 -50.875 C 31.953125 -50.28125 34.148438 -49.546875 36.203125 -48.671875 C 38.253906 -47.804688 40.050781 -46.988281 41.59375 -46.21875 Z M 35.515625 -34.578125 "/></g></g></g><g fill="#292929" fill-opacity="1"><g transform="translate(160.820093, 87.497663)"><g><path d="M 41.015625 -12.296875 L 41.015625 0 L 4.40625 0 L 4.40625 -51.359375 L 40.359375 -51.359375 L 40.359375 -39.0625 L 18.515625 -39.0625 L 18.515625 -31.828125 L 37.171875 -31.828125 L 37.171875 -20.390625 L 18.515625 -20.390625 L 18.515625 -12.296875 Z M 41.015625 -12.296875 "/></g></g></g><g fill="#292929" fill-opacity="1"><g transform="translate(202.837702, 87.497663)"><g><path d="M 4.40625 0 L 4.40625 -51.359375 L 18.515625 -51.359375 L 18.515625 -12.296875 L 41.8125 -12.296875 L 41.8125 0 Z M 4.40625 0 "/></g></g></g><g fill="#292929" fill-opacity="1"><g transform="translate(243.987484, 87.497663)"><g><path d="M 4.40625 0 L 4.40625 -51.359375 L 39.640625 -51.359375 L 39.640625 -39.0625 L 18.515625 -39.0625 L 18.515625 -30.515625 L 35.734375 -30.515625 L 35.734375 -19.09375 L 18.515625 -19.09375 L 18.515625 0 Z M 4.40625 0 "/></g></g></g><g fill="#292929" fill-opacity="1"><g transform="translate(283.546225, 87.497663)"><g><path d="M 4.40625 0 L 4.40625 -51.359375 L 39.640625 -51.359375 L 39.640625 -39.0625 L 18.515625 -39.0625 L 18.515625 -30.515625 L 35.734375 -30.515625 L 35.734375 -19.09375 L 18.515625 -19.09375 L 18.515625 0 Z M 4.40625 0 "/></g></g></g><g fill="#292929" fill-opacity="1"><g transform="translate(323.104965, 87.497663)"><g><path d="M 14.828125 -51.359375 L 24.015625 -30.375 L 33.421875 -51.359375 L 48.75 -51.359375 L 31.03125 -17 L 31.03125 0 L 17 0 L 17 -17.140625 L -0.4375 -51.359375 Z M 14.828125 -51.359375 "/></g></g></g><g fill="#ffffff" fill-opacity="1"><g transform="translate(31.492544, 81.477231)"><g><path d="M 29.84375 -29.046875 C 29.84375 -29.046875 29.492188 -29.25 28.796875 -29.65625 C 28.109375 -30.0625 27.195312 -30.515625 26.0625 -31.015625 C 24.925781 -31.523438 23.691406 -31.984375 22.359375 -32.390625 C 21.023438 -32.796875 19.707031 -33 18.40625 -33 C 17.394531 -33 16.566406 -32.835938 15.921875 -32.515625 C 15.273438 -32.191406 14.953125 -31.644531 14.953125 -30.875 C 14.953125 -30.144531 15.273438 -29.554688 15.921875 -29.109375 C 16.566406 -28.660156 17.488281 -28.253906 18.6875 -27.890625 C 19.882812 -27.523438 21.3125 -27.078125 22.96875 -26.546875 C 25.644531 -25.742188 27.953125 -24.8125 29.890625 -23.75 C 31.835938 -22.695312 33.335938 -21.347656 34.390625 -19.703125 C 35.441406 -18.066406 35.96875 -15.894531 35.96875 -13.1875 C 35.96875 -10.59375 35.5 -8.414062 34.5625 -6.65625 C 33.632812 -4.894531 32.378906 -3.484375 30.796875 -2.421875 C 29.222656 -1.367188 27.460938 -0.609375 25.515625 -0.140625 C 23.578125 0.316406 21.59375 0.546875 19.5625 0.546875 C 17.5 0.546875 15.34375 0.332031 13.09375 -0.09375 C 10.84375 -0.519531 8.664062 -1.109375 6.5625 -1.859375 C 4.457031 -2.609375 2.535156 -3.488281 0.796875 -4.5 L 5.890625 -14.890625 C 5.890625 -14.890625 6.296875 -14.644531 7.109375 -14.15625 C 7.921875 -13.664062 8.992188 -13.117188 10.328125 -12.515625 C 11.660156 -11.910156 13.144531 -11.363281 14.78125 -10.875 C 16.425781 -10.382812 18.082031 -10.140625 19.75 -10.140625 C 21.039062 -10.140625 21.941406 -10.3125 22.453125 -10.65625 C 22.960938 -11.007812 23.21875 -11.46875 23.21875 -12.03125 C 23.21875 -12.882812 22.769531 -13.539062 21.875 -14 C 20.976562 -14.46875 19.8125 -14.914062 18.375 -15.34375 C 16.9375 -15.769531 15.347656 -16.265625 13.609375 -16.828125 C 11.097656 -17.679688 9.03125 -18.644531 7.40625 -19.71875 C 5.789062 -20.789062 4.597656 -22.066406 3.828125 -23.546875 C 3.054688 -25.023438 2.671875 -26.816406 2.671875 -28.921875 C 2.671875 -32.117188 3.421875 -34.789062 4.921875 -36.9375 C 6.421875 -39.09375 8.394531 -40.726562 10.84375 -41.84375 C 13.289062 -42.957031 15.9375 -43.515625 18.78125 -43.515625 C 20.882812 -43.515625 22.914062 -43.257812 24.875 -42.75 C 26.84375 -42.238281 28.6875 -41.617188 30.40625 -40.890625 C 32.132812 -40.160156 33.644531 -39.472656 34.9375 -38.828125 Z M 29.84375 -29.046875 "/></g></g></g></svg>