<svg xmlns="http://www.w3.org/2000/svg" xmlns:xlink="http://www.w3.org/1999/xlink" width="500" zoomAndPan="magnify" viewBox="0 0 375 124.499996" height="166" preserveAspectRatio="xMidYMid meet" version="1.0"><defs><g/><clipPath id="0f96d3a337"><path d="M 1.496094 11 L 106.296875 11 L 106.296875 115.796875 L 1.496094 115.796875 Z M 1.496094 11 " clip-rule="nonzero"/></clipPath><clipPath id="cc48a64a4c"><path d="M 32.871094 11 L 74.921875 11 C 83.242188 11 91.222656 14.304688 97.105469 20.1875 C 102.988281 26.070312 106.296875 34.050781 106.296875 42.371094 L 106.296875 84.421875 C 106.296875 92.742188 102.988281 100.722656 97.105469 106.609375 C 91.222656 112.492188 83.242188 115.796875 74.921875 115.796875 L 32.871094 115.796875 C 24.550781 115.796875 16.570312 112.492188 10.6875 106.609375 C 4.800781 100.722656 1.496094 92.742188 1.496094 84.421875 L 1.496094 42.371094 C 1.496094 34.050781 4.800781 26.070312 10.6875 20.1875 C 16.570312 14.304688 24.550781 11 32.871094 11 Z M 32.871094 11 " clip-rule="nonzero"/></clipPath></defs><g clip-path="url(#0f96d3a337)"><g clip-path="url(#cc48a64a4c)"><path fill="#1649ff" d="M 1.496094 11 L 106.296875 11 L 106.296875 115.796875 L 1.496094 115.796875 Z M 1.496094 11 " fill-opacity="1" fill-rule="nonzero"/></g></g><g fill="#292929" fill-opacity="1"><g transform="translate(118.257496, 87.956275)"><g><path d="M 30.375 -34.59375 C 30.238281 -36.226562 29.625 -37.503906 28.53125 -38.421875 C 27.445312 -39.335938 25.800781 -39.796875 23.59375 -39.796875 C 22.175781 -39.796875 21.019531 -39.628906 20.125 -39.296875 C 19.238281 -38.960938 18.582031 -38.507812 18.15625 -37.9375 C 17.726562 -37.363281 17.507812 -36.707031 17.5 -35.96875 C 17.457031 -35.363281 17.5625 -34.816406 17.8125 -34.328125 C 18.070312 -33.847656 18.476562 -33.414062 19.03125 -33.03125 C 19.59375 -32.644531 20.304688 -32.296875 21.171875 -31.984375 C 22.046875 -31.671875 23.082031 -31.394531 24.28125 -31.15625 L 28.40625 -30.265625 C 31.1875 -29.679688 33.566406 -28.90625 35.546875 -27.9375 C 37.535156 -26.96875 39.160156 -25.832031 40.421875 -24.53125 C 41.679688 -23.226562 42.609375 -21.765625 43.203125 -20.140625 C 43.804688 -18.523438 44.113281 -16.757812 44.125 -14.84375 C 44.113281 -11.53125 43.285156 -8.726562 41.640625 -6.4375 C 40.003906 -4.144531 37.664062 -2.398438 34.625 -1.203125 C 31.59375 -0.00390625 27.945312 0.59375 23.6875 0.59375 C 19.3125 0.59375 15.5 -0.0507812 12.25 -1.34375 C 9 -2.644531 6.472656 -4.640625 4.671875 -7.328125 C 2.878906 -10.023438 1.976562 -13.476562 1.96875 -17.6875 L 14.9375 -17.6875 C 15.019531 -16.144531 15.40625 -14.847656 16.09375 -13.796875 C 16.78125 -12.753906 17.75 -11.960938 19 -11.421875 C 20.257812 -10.878906 21.753906 -10.609375 23.484375 -10.609375 C 24.941406 -10.609375 26.160156 -10.785156 27.140625 -11.140625 C 28.128906 -11.503906 28.875 -12.003906 29.375 -12.640625 C 29.882812 -13.285156 30.148438 -14.019531 30.171875 -14.84375 C 30.148438 -15.613281 29.898438 -16.285156 29.421875 -16.859375 C 28.941406 -17.441406 28.148438 -17.96875 27.046875 -18.4375 C 25.953125 -18.90625 24.472656 -19.34375 22.609375 -19.75 L 17.59375 -20.828125 C 13.132812 -21.796875 9.625 -23.414062 7.0625 -25.6875 C 4.5 -27.957031 3.226562 -31.054688 3.25 -34.984375 C 3.226562 -38.179688 4.082031 -40.976562 5.8125 -43.375 C 7.539062 -45.78125 9.9375 -47.648438 13 -48.984375 C 16.070312 -50.328125 19.601562 -51 23.59375 -51 C 27.65625 -51 31.164062 -50.316406 34.125 -48.953125 C 37.09375 -47.597656 39.382812 -45.6875 41 -43.21875 C 42.613281 -40.757812 43.425781 -37.882812 43.4375 -34.59375 Z M 30.375 -34.59375 "/></g></g></g><g fill="#292929" fill-opacity="1"><g transform="translate(163.245052, 87.956275)"><g><path d="M 3.25 0 L 3.25 -50.3125 L 39.5 -50.3125 L 39.5 -39.3125 L 16.90625 -39.3125 L 16.90625 -30.65625 L 37.640625 -30.65625 L 37.640625 -19.65625 L 16.90625 -19.65625 L 16.90625 -11 L 39.40625 -11 L 39.40625 0 Z M 3.25 0 "/></g></g></g><g fill="#292929" fill-opacity="1"><g transform="translate(205.185842, 87.956275)"><g><path d="M 3.25 0 L 3.25 -50.3125 L 16.90625 -50.3125 L 16.90625 -11 L 37.25 -11 L 37.25 0 Z M 3.25 0 "/></g></g></g><g fill="#292929" fill-opacity="1"><g transform="translate(243.588447, 87.956275)"><g><path d="M 3.25 0 L 3.25 -50.3125 L 38.625 -50.3125 L 38.625 -39.3125 L 16.90625 -39.3125 L 16.90625 -30.65625 L 36.46875 -30.65625 L 36.46875 -19.65625 L 16.90625 -19.65625 L 16.90625 0 Z M 3.25 0 "/></g></g></g><g fill="#292929" fill-opacity="1"><g transform="translate(282.875589, 87.956275)"><g><path d="M 3.25 0 L 3.25 -50.3125 L 38.625 -50.3125 L 38.625 -39.3125 L 16.90625 -39.3125 L 16.90625 -30.65625 L 36.46875 -30.65625 L 36.46875 -19.65625 L 16.90625 -19.65625 L 16.90625 0 Z M 3.25 0 "/></g></g></g><g fill="#292929" fill-opacity="1"><g transform="translate(322.162719, 87.956275)"><g><path d="M 1.171875 -50.3125 L 16.40625 -50.3125 L 26.234375 -29.875 L 26.640625 -29.875 L 36.46875 -50.3125 L 51.6875 -50.3125 L 33.21875 -15.828125 L 33.21875 0 L 19.65625 0 L 19.65625 -15.828125 Z M 1.171875 -50.3125 "/></g></g></g><g fill="#ffffff" fill-opacity="1"><g transform="translate(36.15124, 83.407258)"><g><path d="M 30.65625 -29.84375 C 30.65625 -29.84375 30.300781 -30.050781 29.59375 -30.46875 C 28.882812 -30.882812 27.945312 -31.347656 26.78125 -31.859375 C 25.613281 -32.378906 24.34375 -32.847656 22.96875 -33.265625 C 21.59375 -33.679688 20.238281 -33.890625 18.90625 -33.890625 C 17.875 -33.890625 17.023438 -33.722656 16.359375 -33.390625 C 15.691406 -33.054688 15.359375 -32.492188 15.359375 -31.703125 C 15.359375 -30.960938 15.691406 -30.363281 16.359375 -29.90625 C 17.023438 -29.445312 17.96875 -29.03125 19.1875 -28.65625 C 20.414062 -28.28125 21.882812 -27.820312 23.59375 -27.28125 C 26.34375 -26.445312 28.710938 -25.488281 30.703125 -24.40625 C 32.703125 -23.320312 34.242188 -21.9375 35.328125 -20.25 C 36.410156 -18.570312 36.953125 -16.335938 36.953125 -13.546875 C 36.953125 -10.878906 36.472656 -8.640625 35.515625 -6.828125 C 34.554688 -5.023438 33.265625 -3.582031 31.640625 -2.5 C 30.023438 -1.414062 28.21875 -0.632812 26.21875 -0.15625 C 24.21875 0.320312 22.175781 0.5625 20.09375 0.5625 C 17.976562 0.5625 15.765625 0.34375 13.453125 -0.09375 C 11.140625 -0.53125 8.898438 -1.132812 6.734375 -1.90625 C 4.578125 -2.675781 2.601562 -3.582031 0.8125 -4.625 L 6.0625 -15.296875 C 6.0625 -15.296875 6.472656 -15.046875 7.296875 -14.546875 C 8.128906 -14.046875 9.234375 -13.484375 10.609375 -12.859375 C 11.984375 -12.234375 13.515625 -11.671875 15.203125 -11.171875 C 16.890625 -10.671875 18.582031 -10.421875 20.28125 -10.421875 C 21.613281 -10.421875 22.539062 -10.597656 23.0625 -10.953125 C 23.582031 -11.304688 23.84375 -11.773438 23.84375 -12.359375 C 23.84375 -13.234375 23.382812 -13.910156 22.46875 -14.390625 C 21.550781 -14.867188 20.351562 -15.328125 18.875 -15.765625 C 17.40625 -16.203125 15.773438 -16.710938 13.984375 -17.296875 C 11.398438 -18.171875 9.273438 -19.15625 7.609375 -20.25 C 5.953125 -21.351562 4.726562 -22.664062 3.9375 -24.1875 C 3.144531 -25.707031 2.75 -27.550781 2.75 -29.71875 C 2.75 -33 3.515625 -35.742188 5.046875 -37.953125 C 6.585938 -40.160156 8.617188 -41.832031 11.140625 -42.96875 C 13.660156 -44.113281 16.375 -44.6875 19.28125 -44.6875 C 21.445312 -44.6875 23.539062 -44.425781 25.5625 -43.90625 C 27.582031 -43.394531 29.472656 -42.765625 31.234375 -42.015625 C 33.003906 -41.265625 34.554688 -40.554688 35.890625 -39.890625 Z M 30.65625 -29.84375 "/></g></g></g></svg>