<svg xmlns="http://www.w3.org/2000/svg" xmlns:xlink="http://www.w3.org/1999/xlink" width="50" zoomAndPan="magnify" viewBox="0 0 37.5 37.499999" height="50" preserveAspectRatio="xMidYMid meet" version="1.0"><defs><g/><clipPath id="7a98d72c02"><path d="M 0 0 L 37.007812 0 L 37.007812 37.007812 L 0 37.007812 Z M 0 0 " clip-rule="nonzero"/></clipPath><clipPath id="fe75a43bca"><path d="M 10.363281 0 L 26.644531 0 C 29.394531 0 32.027344 1.089844 33.972656 3.035156 C 35.914062 4.976562 37.007812 7.613281 37.007812 10.363281 L 37.007812 26.644531 C 37.007812 29.394531 35.914062 32.027344 33.972656 33.972656 C 32.027344 35.914062 29.394531 37.007812 26.644531 37.007812 L 10.363281 37.007812 C 4.640625 37.007812 0 32.367188 0 26.644531 L 0 10.363281 C 0 4.640625 4.640625 0 10.363281 0 Z M 10.363281 0 " clip-rule="nonzero"/></clipPath></defs><g clip-path="url(#7a98d72c02)"><g clip-path="url(#fe75a43bca)"><path fill="#1649ff" d="M 0 0 L 37.007812 0 L 37.007812 37.007812 L 0 37.007812 Z M 0 0 " fill-opacity="1" fill-rule="nonzero"/></g></g><g fill="#ffffff" fill-opacity="1"><g transform="translate(11.955246, 25.569134)"><g><path d="M 10.828125 -10.53125 C 10.828125 -10.53125 10.703125 -10.601562 10.453125 -10.75 C 10.203125 -10.90625 9.867188 -11.070312 9.453125 -11.25 C 9.046875 -11.4375 8.597656 -11.601562 8.109375 -11.75 C 7.628906 -11.894531 7.15625 -11.96875 6.6875 -11.96875 C 6.3125 -11.96875 6.003906 -11.910156 5.765625 -11.796875 C 5.535156 -11.679688 5.421875 -11.484375 5.421875 -11.203125 C 5.421875 -10.929688 5.535156 -10.710938 5.765625 -10.546875 C 6.003906 -10.390625 6.34375 -10.242188 6.78125 -10.109375 C 7.21875 -9.984375 7.734375 -9.828125 8.328125 -9.640625 C 9.296875 -9.335938 10.132812 -8.992188 10.84375 -8.609375 C 11.550781 -8.234375 12.09375 -7.75 12.46875 -7.15625 C 12.851562 -6.5625 13.046875 -5.769531 13.046875 -4.78125 C 13.046875 -3.84375 12.875 -3.050781 12.53125 -2.40625 C 12.195312 -1.769531 11.742188 -1.257812 11.171875 -0.875 C 10.597656 -0.5 9.957031 -0.222656 9.25 -0.046875 C 8.550781 0.117188 7.832031 0.203125 7.09375 0.203125 C 6.34375 0.203125 5.5625 0.125 4.75 -0.03125 C 3.9375 -0.1875 3.144531 -0.398438 2.375 -0.671875 C 1.613281 -0.941406 0.914062 -1.257812 0.28125 -1.625 L 2.140625 -5.40625 C 2.140625 -5.40625 2.285156 -5.316406 2.578125 -5.140625 C 2.867188 -4.960938 3.253906 -4.765625 3.734375 -4.546875 C 4.222656 -4.328125 4.765625 -4.128906 5.359375 -3.953125 C 5.960938 -3.773438 6.566406 -3.6875 7.171875 -3.6875 C 7.640625 -3.6875 7.960938 -3.75 8.140625 -3.875 C 8.328125 -4 8.421875 -4.160156 8.421875 -4.359375 C 8.421875 -4.671875 8.257812 -4.910156 7.9375 -5.078125 C 7.613281 -5.242188 7.191406 -5.40625 6.671875 -5.5625 C 6.148438 -5.71875 5.570312 -5.898438 4.9375 -6.109375 C 4.03125 -6.410156 3.28125 -6.753906 2.6875 -7.140625 C 2.101562 -7.535156 1.671875 -8 1.390625 -8.53125 C 1.109375 -9.070312 0.96875 -9.726562 0.96875 -10.5 C 0.96875 -11.65625 1.238281 -12.625 1.78125 -13.40625 C 2.320312 -14.1875 3.035156 -14.773438 3.921875 -15.171875 C 4.816406 -15.578125 5.78125 -15.78125 6.8125 -15.78125 C 7.570312 -15.78125 8.304688 -15.6875 9.015625 -15.5 C 9.734375 -15.320312 10.40625 -15.097656 11.03125 -14.828125 C 11.65625 -14.566406 12.203125 -14.320312 12.671875 -14.09375 Z M 10.828125 -10.53125 "/></g></g></g></svg>